<svg width="114" height="20" viewBox="0 0 114 20" fill="none" xmlns="http://www.w3.org/2000/svg">
<g clip-path="url(#clip0_4002_9832)">
<path fill-rule="evenodd" clip-rule="evenodd" d="M9.99247 2.76311C12.6886 2.76311 15.6275 4.0222 17.613 5.97863C18.322 6.67722 19.5132 6.79661 20.3825 6.30792C21.4255 5.72154 22.6146 5.38049 23.7703 5.38049C26.9266 5.38049 29.4854 7.92448 29.4854 11.0626C29.4854 14.2008 26.9266 16.7448 23.7703 16.7448C22.6146 16.7448 21.4256 16.4038 20.3825 15.8174C19.5132 15.3287 18.322 15.4481 17.6131 16.1467C15.6276 18.1032 12.6886 19.3623 9.99247 19.3623C5.36073 19.3623 1.60596 15.6464 1.60596 11.0627C1.60596 6.47897 5.36072 2.76311 9.99247 2.76311ZM34.8693 7.40438C36.9179 7.40438 38.5786 9.04225 38.5786 11.0627C38.5786 13.0831 36.9179 14.721 34.8693 14.721C32.8208 14.721 31.2059 13.0831 31.2059 11.0627C31.2059 9.04225 32.8208 7.40438 34.8693 7.40438Z" fill="#EEEEEE"/>
<ellipse cx="98.4938" cy="3.06646" rx="1.52523" ry="1.51362" transform="rotate(-180 98.4938 3.06646)" fill="#EEEEEE"/>
<path d="M103.888 11.1763V11.6087C103.888 12.9334 104.147 14.0321 104.665 14.9048C104.908 15.3177 105.219 15.645 105.595 15.8866C105.972 16.1281 106.311 16.2489 106.696 16.2489H106.973C107.688 16.2489 108.304 15.906 108.823 15.2203C109.349 14.5268 109.612 13.545 109.612 12.2749V11.4451C109.612 10.1906 109.349 9.12693 108.823 8.25422C108.304 7.37371 107.645 6.93346 106.844 6.93346H106.479C105.686 6.94834 105.144 7.31917 104.641 8.09059C104.139 8.862 103.888 9.89056 103.888 11.1763ZM112.45 11.223V11.8074C112.45 12.423 112.324 13.097 112.073 13.8295C111.547 15.3567 110.499 16.4242 108.929 17.032C108.245 17.2969 107.586 17.4294 106.95 17.4294H106.561C105.061 17.4294 103.809 16.9307 102.804 15.9333C102.349 15.4814 101.98 14.8853 101.697 14.145C101.414 13.4048 101.273 12.6178 101.273 11.784V11.5853C101.273 10.8295 101.406 10.0659 101.673 9.29446C102.192 7.79059 103.208 6.74645 104.724 6.16204C105.407 5.89711 106.002 5.76465 106.691 5.76465H107.137C107.836 5.76465 108.666 5.92049 109.341 6.23217C110.621 6.82437 111.512 7.76721 112.014 9.0607C112.305 9.82432 112.45 10.5451 112.45 11.223Z" fill="#EEEEEE"/>
<path d="M96.672 7.40044C96.2637 7.20564 96.0596 7.02252 96.0596 6.8511C96.0596 6.67967 96.142 6.54331 96.3069 6.44201C96.8801 6.09916 97.787 5.92773 99.0276 5.92773H99.3691C99.7931 5.92773 100.033 6.12254 100.088 6.51214C100.119 6.72253 100.135 8.14069 100.135 10.7666C100.135 13.3848 100.19 14.8886 100.3 15.2782C100.41 15.66 100.673 15.9561 101.089 16.1665C101.505 16.3691 101.713 16.5756 101.713 16.786C101.713 17.5388 97.8644 17.2767 97.0018 17.2418C96.4136 17.2141 96.142 17.1016 96.142 16.8211C96.142 16.5873 96.3148 16.3613 96.6602 16.1432C97.0136 15.925 97.257 15.6834 97.3905 15.4185C97.5397 15.1302 97.6142 14.4562 97.6142 13.3964L97.626 13.0224V12.6601L97.6378 12.1108V11.7484L97.6496 11.3861C97.6496 9.53937 97.5868 8.46406 97.4611 8.16017C97.3434 7.84848 97.0803 7.59524 96.672 7.40044Z" fill="#EEEEEE"/>
<path d="M93.4975 9.59545C93.4975 8.09926 92.5326 6.78792 90.8946 7.00069C89.5247 7.25029 88.5979 8.57878 88.5979 9.93441V10.0864C88.5979 10.2755 88.6838 10.3929 88.8554 10.4386C89.135 10.5573 93.4975 10.8703 93.4975 9.59545ZM88.5979 12.6928C88.5979 13.5811 88.9355 14.3253 89.6108 14.9252C90.2861 15.5252 91.1419 15.8252 92.1784 15.8252C92.5945 15.8252 92.9714 15.7668 93.3091 15.6499C93.6545 15.5252 94.0275 15.3772 94.4279 15.2058C94.8362 15.0343 95.0914 14.9486 95.1935 14.9486C95.5076 14.9486 95.6646 15.1161 95.6646 15.4512C95.6646 15.9031 95.0836 16.3863 93.9215 16.9005C93.1677 17.2356 92.359 17.4031 91.4953 17.4031H91.2362C89.76 17.4031 88.5351 16.959 87.5615 16.0707C87.0354 15.5876 86.6271 14.972 86.3366 14.224C85.7266 12.6371 85.6914 10.597 86.4308 9.04611C86.7841 8.32145 87.2042 7.72535 87.691 7.25783C88.7196 6.27603 89.9406 5.78123 91.3539 5.77344C93.4896 5.77344 94.9108 6.5994 95.6175 8.25132C95.8374 8.77339 95.9473 9.2526 95.9473 9.68896V9.92272C95.9473 10.4604 95.7235 10.8227 95.276 11.0097C94.8284 11.1889 93.7723 11.337 92.1077 11.4539C90.4431 11.5707 89.5401 11.6487 89.3988 11.6876C88.8649 11.8201 88.5979 12.1552 88.5979 12.6928Z" fill="#EEEEEE"/>
<path d="M83.2833 16.7375C83.2833 17.0414 82.5727 17.1934 81.1515 17.1934H79.9031L79.4084 17.17L78.6664 17.1583C77.8341 17.1583 77.418 17.0102 77.418 16.7141C77.418 16.5038 77.6025 16.2817 77.9715 16.0479C78.3484 15.8064 78.5997 15.4986 78.7253 15.1246C78.8588 14.7427 78.9255 13.6246 78.9255 11.7701C78.9255 9.91554 78.8627 8.78959 78.7371 8.39219C78.6193 7.99479 78.4746 7.73763 78.1718 7.53896C77.7085 7.23507 77.4923 7.05162 77.4769 6.87273C77.4653 6.73928 77.5593 6.6078 77.7242 6.49871C78.211 6.17145 79.0355 6.00781 80.1975 6.00781H80.4213C80.8689 6.00781 81.1869 6.23378 81.3753 6.68572C81.5638 7.12987 81.7169 7.35195 81.8347 7.35195C81.9524 7.35195 82.1527 7.24286 82.4353 7.02468C82.7259 6.8065 83.0713 6.58832 83.4718 6.37014C83.8801 6.15197 84.3316 6.04288 84.8262 6.04288C85.3209 6.04288 85.6978 6.17145 85.9569 6.42859C86.2239 6.67793 86.3574 7.0013 86.3574 7.3987C86.3495 7.80389 86.2435 8.10778 86.0394 8.31037C85.8352 8.51297 85.6154 8.61427 85.3798 8.61427C85.1442 8.61427 84.8341 8.52076 84.4493 8.33375C84.0646 8.13895 83.7427 8.04155 83.4836 8.04155C83.2244 8.04155 82.9418 8.15064 82.6356 8.36881C82.3293 8.5792 82.0663 8.96101 81.8464 9.51425C81.6344 10.0597 81.5284 10.9986 81.5284 12.3311C81.5284 13.6557 81.6227 14.5129 81.8111 14.9025C81.9996 15.2843 82.2901 15.6349 82.6827 15.9544C83.0831 16.2739 83.2833 16.5349 83.2833 16.7375Z" fill="#EEEEEE"/>
<path d="M72.5286 11.7811H72.3283C71.2997 11.7811 70.44 12.011 69.749 12.4707C69.0659 12.9227 68.7243 13.4876 68.7243 14.1655C68.7243 14.6423 68.7893 15.0807 69.0894 15.4746C69.4591 15.9331 70.0025 15.9655 70.5499 15.9655C71.3665 15.9655 72.0339 15.6343 72.5521 14.972C72.7798 14.6837 72.8937 14.0915 72.8937 13.1954C72.8937 13.1253 72.8937 13.0551 72.8937 12.985L72.9055 12.7045V12.424C72.9055 11.9954 72.7798 11.7811 72.5286 11.7811ZM66.8045 8.00587C66.8045 7.42926 67.2639 6.91498 68.1825 6.46304C69.1091 6.0033 70.067 5.77344 71.0563 5.77344C71.0877 5.77344 71.1192 5.77344 71.1506 5.77344C72.0928 5.77344 72.8466 5.88642 73.4119 6.11239C74.5583 6.56433 75.3464 7.57413 75.3788 8.98767C75.4024 10.0155 75.4024 10.1175 75.4024 11.9331C75.4024 13.7408 75.4495 14.8006 75.5437 15.1123C75.6458 15.4239 75.9127 15.6538 76.3446 15.8019C76.7843 15.9499 77.0041 16.0249 77.0041 16.2226C77.0041 17.444 74.4329 17.6252 73.6946 16.9356V16.9356C73.2346 16.509 72.5719 16.4199 72.0011 16.68C71.8781 16.7361 71.7436 16.7979 71.5981 16.8655C70.7423 17.2551 69.9924 17.4499 69.3485 17.4499C68.3828 17.4499 67.6251 17.1849 67.0754 16.6551C66.5258 16.1252 66.251 15.4824 66.251 14.7265V14.4343C66.251 13.624 66.6043 12.911 67.311 12.2954C68.0177 11.6798 69.2897 11.2006 71.127 10.8578C71.7944 10.7331 72.2145 10.6162 72.3872 10.5071C72.7327 10.289 72.9055 9.8448 72.9055 9.17468C72.9055 8.50456 72.7249 7.99029 72.3637 7.63185C72.0025 7.27341 71.5196 7.0942 70.915 7.0942C70.3104 7.0942 69.7254 7.44484 69.1601 8.14613C68.6026 8.83962 68.0922 9.18637 67.629 9.18637C67.0794 9.18637 66.8045 8.79287 66.8045 8.00587Z" fill="#EEEEEE"/>
<path d="M53.5827 16.5504C53.5827 16.4101 53.7515 16.1569 54.0891 15.7907C54.4268 15.4166 54.6348 15.0426 54.7133 14.6686C54.7997 14.2946 54.8429 12.3232 54.8429 8.75441C54.8429 5.18563 54.7605 3.02333 54.5956 2.2675C54.517 1.90127 54.3522 1.63244 54.1009 1.46102C53.6455 1.14154 53.4282 1.0827 53.4178 0.946738C53.3932 0.625986 53.5709 0.455837 53.8771 0.338956C54.4582 0.112986 55.1373 0 55.9147 0H56.0425C56.4756 0 56.9197 0.144154 57.0689 0.432461C57.226 0.720768 57.3045 1.35582 57.3045 2.33763L57.2927 2.77009C57.2848 3.05839 57.2809 3.3467 57.2809 3.63501L57.2574 4.49993C57.2574 4.78824 57.2574 5.07654 57.2574 5.36485C57.2574 5.84525 57.2974 6.21261 57.3774 6.46692C57.5061 6.87632 58.0035 6.82155 58.3998 6.65054C59.4912 6.16743 60.406 5.92588 61.144 5.92588C62.526 5.92588 63.4957 6.47522 64.0532 7.57391C64.4222 8.32195 64.6067 10.1609 64.6067 13.0907C64.6067 14.2206 64.646 14.9257 64.7245 15.2063C64.8109 15.479 65.0347 15.7634 65.3958 16.0595C65.7649 16.3556 65.9513 16.4635 65.9494 16.6205C65.9459 16.9016 65.7884 17.0257 65.4665 17.1114C65.1524 17.1971 64.3437 17.24 63.0403 17.24H62.6281C61.7722 17.24 61.3443 17.0686 61.3443 16.7257C61.3443 16.6478 61.4463 16.453 61.6505 16.1413C61.8546 15.8218 61.9881 15.4634 62.0509 15.066C62.1138 14.6686 62.1452 13.6284 62.1452 11.9453C62.1452 11.1788 62.1289 10.5416 62.0963 10.0337C62.0418 9.18414 61.6436 8.29158 60.9224 7.83058C60.381 7.48447 59.7656 7.42459 59.1524 7.62008C58.6794 7.77089 58.2754 8.0438 57.9405 8.43883C57.54 8.90635 57.3398 9.97387 57.3398 11.6414C57.3398 13.3011 57.3791 14.3608 57.4576 14.8205C57.5361 15.2725 57.7049 15.6855 57.964 16.0595C58.231 16.4257 58.3645 16.6517 58.3645 16.7374C58.3645 17.0179 57.5675 17.1582 55.9736 17.1582C54.3796 17.1582 53.5827 16.9556 53.5827 16.5504Z" fill="#EEEEEE"/>
<path d="M52.4683 11.9458C53.0886 12.5302 53.3987 13.2705 53.3987 14.1666C53.3987 15.0549 53.0297 15.8185 52.2916 16.4575C51.5535 17.0886 50.5328 17.4042 49.2294 17.4042H48.9114C47.4274 17.4042 46.2967 17.2211 45.5194 16.8549C45.0875 16.6523 44.8716 16.2003 44.8716 15.499V15.2068C44.8716 14.3107 45.0404 13.8627 45.378 13.8627C45.6607 13.8627 45.9944 14.1276 46.3791 14.6575C46.7639 15.1796 47.0858 15.5302 47.3449 15.7094C47.8475 16.0523 48.4363 16.2237 49.1116 16.2237C49.7947 16.2237 50.2972 16.0834 50.6192 15.8029C50.9411 15.5146 51.1021 15.1367 51.1021 14.6692C51.1021 14.2016 50.8272 13.7692 50.2776 13.3718C49.9871 13.1614 49.3079 12.8302 48.24 12.3783C47.18 11.9264 46.387 11.4549 45.8609 10.964C45.3348 10.4653 45.0718 9.76405 45.0718 8.86017C45.0718 7.95629 45.4526 7.22383 46.2143 6.6628C46.9759 6.09398 47.9142 5.80957 49.0292 5.80957H49.3472C50.8076 5.80957 51.8323 5.981 52.4212 6.32385C52.7274 6.50307 52.8805 7.00176 52.8805 7.81993C52.8805 8.6381 52.6842 9.04718 52.2916 9.04718C52.0718 9.04718 51.7695 8.80563 51.3847 8.32252C51.0078 7.83162 50.6624 7.48487 50.3483 7.28227C50.0342 7.07189 49.5984 6.96669 49.0409 6.96669C48.4913 6.96669 48.0555 7.09137 47.7336 7.34072C47.4117 7.59006 47.2507 7.95239 47.2507 8.42771C47.2507 8.89524 47.5452 9.31601 48.134 9.69003C48.2832 9.79133 48.9349 10.0913 50.0892 10.59C51.2434 11.0887 52.0364 11.5406 52.4683 11.9458Z" fill="#EEEEEE"/>
</g>
<defs>
<clipPath id="clip0_4002_9832">
<rect width="110.893" height="19.4056" fill="white" transform="translate(1.60596)"/>
</clipPath>
</defs>
</svg>
