<svg width="55" height="55" viewBox="0 0 55 55" fill="none" xmlns="http://www.w3.org/2000/svg">
<path id="Union" fill-rule="evenodd" clip-rule="evenodd" d="M15.5228 45.3552C17.5646 48.2318 20.1026 50.5075 22.9714 51.9034C12.6292 50.0211 4.49451 41.8086 2.72815 31.4264C4.17637 33.5948 6.38402 35.492 9.07804 37.0196C9.98668 37.5348 10.9565 38.0119 11.9801 38.447C12.8877 41.0022 14.0871 43.3323 15.5228 45.3552ZM11.2318 36.0456C10.4562 33.1701 10.0344 30.0651 10.0344 26.8313C10.0344 19.6558 12.111 13.1143 15.5228 8.30736C17.0756 6.11961 18.9155 4.27943 20.9697 2.90952C10.6795 5.67116 2.99685 14.8023 2.40752 25.8171L2.72306 25.806C2.84956 29.4028 5.47094 32.8241 10.0006 35.3926C10.3978 35.6178 10.8085 35.8356 11.2318 36.0456ZM13.4767 37.0382C12.469 33.932 11.9048 30.4779 11.9048 26.8313C11.9048 20.0022 13.8837 13.8482 17.0481 9.38993C20.1752 4.98417 24.4105 2.28955 29.0181 2.09773C41.7558 2.85676 51.9385 13.1042 52.5951 25.8693C52.4403 29.4429 49.8232 32.8391 45.3201 35.3926C40.8154 37.9469 34.5834 39.5504 27.6603 39.5504C22.3763 39.5504 17.4949 38.6163 13.4767 37.0382ZM14.3303 39.3397C18.265 40.6678 22.8203 41.4208 27.6603 41.4208C34.8496 41.4208 41.4108 39.7594 46.2426 37.0196C48.6812 35.6368 50.7213 33.9512 52.1603 32.0358C50.0575 42.7798 41.1082 51.072 30.0413 52.1834C29.9133 51.8349 29.5832 51.5819 29.1894 51.5708C24.5155 51.4395 20.2139 48.7329 17.0481 44.2726C16.0035 42.8009 15.088 41.1443 14.3303 39.3397ZM54.4673 25.8567C54.4885 26.2956 54.4992 26.7373 54.4992 27.1815C54.4992 42.0927 42.4112 54.1807 27.5 54.1807C12.5887 54.1807 0.500732 42.0927 0.500732 27.1815C0.500732 12.2702 12.5887 0.182251 27.5 0.182251C28.0158 0.182251 28.5283 0.196717 29.037 0.225266C29.0702 0.224104 29.1035 0.223055 29.1368 0.222119L29.1371 0.231069C42.8045 1.04852 53.7326 12.0333 54.4606 25.7247C54.4658 25.7679 54.4681 25.812 54.4673 25.8567Z" fill="url(#paint0_linear_3086_16573)"/>
<defs>
<linearGradient id="paint0_linear_3086_16573" x1="27.5" y1="0.182252" x2="55.1724" y2="58.5986" gradientUnits="userSpaceOnUse">
<stop stop-color="#7C52FF"/>
<stop offset="0.588573" stop-color="#F9008E"/>
<stop offset="1" stop-color="#FF7A00"/>
</linearGradient>
</defs>
</svg>
